<?xml version="1.0" encoding="UTF-8"?>
<svg width="113px" height="36px" viewBox="0 0 113 36" version="1.1" xmlns="http://www.w3.org/2000/svg" xmlns:xlink="http://www.w3.org/1999/xlink">
    <title>183EB270-8E88-4D76-89B8-E2C8E4BD8FEA</title>
    <defs>
        <polygon id="path-1" points="0.242052264 0.248464286 24.2076357 0.248464286 24.2076357 35.6785714 0.242052264 35.6785714"></polygon>
        <polygon id="path-3" points="0 0.234642857 21.4556605 0.234642857 21.4556605 24.7638214 0 24.7638214"></polygon>
        <polygon id="path-5" points="0.170384235 0.154767857 6.25063431 0.154767857 6.25063431 7.47916071 0.170384235 7.47916071"></polygon>
    </defs>
    <g id="Page-1" stroke="none" stroke-width="1" fill="none" fill-rule="evenodd">
        <g id="Trang-chủ" transform="translate(-314.000000, -5316.000000)">
            <g id="Footer" transform="translate(1.000000, 4886.000000)">
                <g id="Group-34" transform="translate(313.813095, 430.000000)">
                    <path d="M55.7754591,28.004625 L56.1676898,28.004625 C56.4285344,28.004625 56.6575766,27.9673393 56.6575766,27.6481607 C56.6575766,27.3643393 56.4012293,27.3196607 56.1725084,27.3196607 L55.7754591,27.3196607 L55.7754591,28.004625 Z M55.3295818,26.9799107 L56.2187665,26.9799107 C56.7912113,26.9799107 57.1040964,27.1791964 57.1040964,27.6835179 C57.1040964,28.0933393 56.8683082,28.2910179 56.4757563,28.3270179 L57.1188733,29.372625 L56.6633589,29.372625 L56.0446559,28.3424464 L55.7754591,28.3424464 L55.7754591,29.372625 L55.3295818,29.372625 L55.3295818,26.9799107 Z M57.7411098,28.1852679 C57.7411098,27.1978393 57.0269994,26.4823393 56.1419908,26.4823393 C55.2601946,26.4823393 54.5467267,27.1978393 54.5467267,28.1852679 C54.5467267,29.1749464 55.2601946,29.8894821 56.1419908,29.8894821 C57.0269994,29.8894821 57.7411098,29.1749464 57.7411098,28.1852679 L57.7411098,28.1852679 Z M54.0311409,28.1852679 C54.0311409,27.0216964 54.9787908,26.0747679 56.1419908,26.0747679 C57.3077608,26.0747679 58.2538045,27.0216964 58.2538045,28.1852679 C58.2538045,29.3498036 57.3077608,30.2989821 56.1419908,30.2989821 C54.9787908,30.2989821 54.0311409,29.3498036 54.0311409,28.1852679 L54.0311409,28.1852679 Z" id="Fill-1" fill="#1168AF"></path>
                    <path d="M47.2268863,5.77189286 C44.1047815,5.77189286 41.4192382,7.82389286 40.3437359,10.71 C40.2875193,10.8572143 40.0970257,11.466 40.0970257,11.466 L35.7500433,30.3010714 L45.7344181,30.3010714 C49.1642681,30.3010714 52.0666466,27.8251071 52.889014,24.4870714 C52.889014,24.4883571 52.8880503,24.4883571 52.8880503,24.4899643 L52.889014,24.4899643 L57.2067638,5.77189286 L47.2268863,5.77189286 Z" id="Fill-3" fill="#15B04B"></path>
                    <g id="Group-7" transform="translate(16.383099, 0.072964)">
                        <mask id="mask-2" fill="white">
                            <use xlink:href="#path-1"></use>
                        </mask>
                        <g id="Clip-6"></g>
                        <path d="M14.2210122,0.248303571 C10.8788599,0.248303571 8.0574332,2.51308929 7.1820617,5.60458929 C7.11685054,5.835375 7.06352516,6.071625 7.01887318,6.31044643 L0.242052264,35.6787321 L10.2180749,35.6787321 C13.6360392,35.6787321 16.511755,33.3094821 17.3142056,30.1099821 L17.3142056,30.110625 L17.3167755,30.110625 L24.2076357,0.248303571 L14.2210122,0.248303571 Z" id="Fill-5" fill="#F17126" mask="url(#mask-2)"></path>
                    </g>
                    <g id="Group-10" transform="translate(0.000000, 5.537250)">
                        <mask id="mask-4" fill="white">
                            <use xlink:href="#path-3"></use>
                        </mask>
                        <g id="Clip-9"></g>
                        <path d="M11.4748193,0.234642857 C8.23867525,0.234642857 5.47153762,2.43771429 4.47827206,5.48967857 C4.45674916,5.55846429 4.43490503,5.62628571 4.41434585,5.69539286 L4.24762372,6.35207143 L-9.63711735e-05,24.7638214 L10.2242427,24.7638214 C13.2792089,24.7638214 15.9017897,22.7349643 16.9207543,19.8935357 L17.325192,18.1414286 L21.4556605,0.234642857 L11.4748193,0.234642857 Z" id="Fill-8" fill="#1168AF" mask="url(#mask-4)"></path>
                    </g>
                    <path d="M9.60762777,11.8884536 L9.60377292,11.9042036 L9.44893657,11.9042036 C8.7367536,11.9042036 8.06536776,12.1584536 7.44987719,12.6608464 C6.85751571,13.1449179 6.46849741,13.7328107 6.33422024,14.2155964 L6.32875921,14.2155964 L4.03865889,24.169275 L4.16875997,24.167025 C4.88929511,24.167025 5.5696756,23.9114893 6.18773606,23.4052393 C6.80900889,22.8999536 7.20573689,22.2805607 7.36603427,21.5650607 L7.86684314,19.4050607 L12.4210236,19.4066679 C13.1325641,19.4066679 13.819048,19.1402036 14.4406421,18.6384536 C15.06063,18.137025 15.456073,17.5208464 15.6163704,16.8082393 L15.6452818,16.6770964 L8.50064422,16.6719536 L8.97639658,14.6196321 L15.1643896,14.6109536 C15.8765726,14.6109536 16.5492434,14.3595964 17.1631278,13.8613821 C17.775406,13.3622036 18.1583208,12.7354179 18.3298614,12.0289179 L18.3613427,11.8974536 L9.60762777,11.8884536 Z" id="Fill-11" fill="#FEFEFE"></path>
                    <path d="M32.1434806,16.6698643 L26.2529532,16.6644 L26.7296693,14.6085429 L32.6208391,14.6143286 L32.1434806,16.6698643 Z M34.8682149,12.4925786 C34.4753417,12.0985071 33.9620046,11.8985786 33.3426592,11.8985786 L24.6098247,11.8886143 L21.7896829,24.1527214 L21.7928953,24.1527214 L21.7896829,24.1691143 L21.919784,24.1671857 C22.6403192,24.1671857 23.3197359,23.91165 23.9384389,23.4050786 C24.5597117,22.8997929 24.9557972,22.2804 25.1167371,21.5649 L25.6236495,19.38015 L31.6696556,19.3852929 C32.3789475,19.3852929 33.013391,19.3033286 33.6288816,18.8073643 C34.2405173,18.3117214 34.6767575,17.5248643 34.8499044,16.8006857 L35.3805883,14.5278643 C35.419458,14.3485071 35.4416234,14.1604714 35.4445145,13.9695429 C35.4557578,13.3839 35.2620518,12.8863286 34.8682149,12.4925786 L34.8682149,12.4925786 Z" id="Fill-13" fill="#FEFEFE"></path>
                    <path d="M52.6364894,12.4999393 C52.2506835,12.105225 51.7373463,11.9043321 51.1157523,11.9043321 L47.2689363,11.9043321 L47.0260809,11.9043321 L41.9007407,11.9043321 L41.8824301,11.9917607 C41.8413118,12.1846179 41.8185039,12.361725 41.8152915,12.5320821 C41.8053332,13.1299393 41.9971118,13.6332964 42.3848452,14.0302607 C42.7719361,14.4243321 43.2843095,14.6249036 43.9068673,14.6249036 L45.834612,14.6249036 L43.6386342,24.1690821 L43.7690565,24.1671536 C44.4895916,24.1671536 45.1696509,23.9116179 45.7880326,23.4050464 C46.4093054,22.8997607 46.8053909,22.2803679 46.9653671,21.5651893 L48.5750869,14.6249036 L53.1218789,14.6249036 L53.1401894,14.5381179 C53.1797016,14.3558679 53.200582,14.1681536 53.2037944,13.9807607 C53.2140739,13.3906179 53.0242227,12.8930464 52.6364894,12.4999393" id="Fill-15" fill="#FEFEFE"></path>
                    <path d="M67.6197976,23.5090286 C67.0370732,24.0139929 66.2583941,24.2663143 65.2840816,24.2663143 C64.3357892,24.2663143 63.5529341,24.1011 62.9355161,23.7700286 L63.4443559,22.4907429 C64.0007388,22.7954571 64.5969551,22.9474929 65.2317199,22.9474929 C65.7624038,22.9474929 66.1841883,22.8214929 66.4973946,22.5691714 C66.8192744,22.31685 66.9805355,21.9729214 66.9805355,21.5377071 C66.9805355,20.9459571 66.4755505,20.4281357 65.4668656,19.9839214 C64.718704,19.6448143 64.1748494,19.3140643 63.8359441,18.9916714 C63.3049389,18.5043857 63.0395969,17.9039571 63.0395969,17.1900643 C63.0395969,16.3807071 63.3139335,15.7323857 63.8619643,15.2447786 C64.4010004,14.7661714 65.1231417,14.5267071 66.028067,14.5267071 C66.8976563,14.5267071 67.6066268,14.6922429 68.1546576,15.0229929 L67.6850087,16.22385 C67.1713504,15.9368143 66.6364904,15.7931357 66.0801075,15.7931357 C65.6101374,15.7931357 65.2317199,15.9107786 64.944855,16.1457429 C64.6576689,16.3807071 64.5140759,16.7027786 64.5140759,17.1119571 C64.5140759,17.68635 65.0447598,18.21735 66.1061277,18.7046357 C66.8456158,19.0440643 67.3759785,19.3661357 67.6978582,19.67085 C68.2198688,20.1581357 68.4807134,20.7588857 68.4807134,21.4724571 C68.4807134,22.3255286 68.1938485,23.0043857 67.6197976,23.5090286" id="Fill-17" fill="#1267B0"></path>
                    <path d="M73.5564225,18.7568036 C73.2692364,18.3042321 72.8561253,18.0779464 72.316768,18.0779464 C71.7774106,18.0779464 71.3642995,18.3042321 71.0774347,18.7568036 C70.798922,19.2006964 70.659505,19.810125 70.659505,20.5847679 C70.659505,21.3594107 70.798922,21.9685179 71.0774347,22.4124107 C71.3642995,22.8739821 71.7774106,23.1044464 72.316768,23.1044464 C72.8561253,23.1044464 73.2692364,22.8739821 73.5564225,22.4124107 C73.8346139,21.9685179 73.9740309,21.3594107 73.9740309,20.5847679 C73.9740309,19.810125 73.8346139,19.2006964 73.5564225,18.7568036 M74.613293,23.2089107 C74.0565889,23.9138036 73.2910805,24.2664107 72.316768,24.2664107 C71.3424554,24.2664107 70.576947,23.9138036 70.0202429,23.2089107 C69.4898802,22.5474107 69.2248595,21.6769821 69.2248595,20.597625 C69.2248595,19.5185893 69.4898802,18.6481607 70.0202429,17.9866607 C70.576947,17.2904464 71.3424554,16.9420179 72.316768,16.9420179 C73.2910805,16.9420179 74.0565889,17.2904464 74.613293,17.9866607 C75.1436557,18.6481607 75.4093189,19.5185893 75.4093189,20.597625 C75.4093189,21.6769821 75.1436557,22.5474107 74.613293,23.2089107" id="Fill-19" fill="#1267B0"></path>
                    <path d="M79.6756065,14.9967964 C78.7449822,14.9967964 78.2795094,15.401475 78.2795094,16.2108321 L78.2795094,17.0857607 L79.7408177,17.0857607 L79.7408177,18.1564393 L78.2795094,18.1564393 L78.2795094,24.1227964 L76.8837336,24.1227964 L76.8837336,18.1564393 L75.9569642,18.1564393 L75.9569642,17.0857607 L76.8837336,17.0857607 L76.8837336,16.2108321 C76.8837336,15.4365107 77.1269102,14.8402607 77.6142271,14.4224036 C78.0578557,14.0392607 78.6624242,13.8480107 79.4279326,13.8480107 C79.5846964,13.8480107 79.7321443,13.8566893 79.87124,13.8740464 L79.87124,14.9967964 L79.6756065,14.9967964 Z" id="Fill-21" fill="#1267B0"></path>
                    <path d="M83.8639298,24.0573857 C83.6377788,24.16185 83.3422405,24.2139214 82.9766726,24.2139214 C81.6891537,24.2139214 81.0457155,23.5267071 81.0457155,22.1513143 L81.0457155,18.1562786 L80.0932471,18.1562786 L80.0932471,17.0856 L81.0457155,17.0856 L81.0457155,15.4537071 L82.4418126,15.0229929 L82.4418126,17.0856 L83.8639298,17.0856 L83.8639298,18.1562786 L82.4418126,18.1562786 L82.4418126,22.0728857 C82.4418126,22.6649571 82.7550189,22.9606714 83.3811103,22.9606714 C83.563573,22.9606714 83.7245129,22.9304571 83.8639298,22.8693857 L83.8639298,24.0573857 Z" id="Fill-23" fill="#1267B0"></path>
                    <path d="M92.2405765,24.1226679 L90.7660975,24.1226679 L89.5135935,19.6577036 C89.426217,19.3443107 89.3568297,19.0048821 89.3044681,18.6390964 L89.2787691,18.6390964 C89.217734,19.0048821 89.1438494,19.3443107 89.0567941,19.6577036 L87.8042901,24.1226679 L86.3301324,24.1226679 L84.2424116,17.0856321 L85.6642076,17.0856321 L86.8778419,21.7334893 C86.9648972,22.0642393 87.0301084,22.4342036 87.0734754,22.8433821 L87.0998168,22.8433821 C87.1692041,22.4342036 87.247586,22.0642393 87.3346413,21.7334893 L88.6131655,17.0856321 L89.9572221,17.0856321 L91.2357464,21.7334893 C91.3228017,22.0642393 91.4011836,22.4342036 91.470892,22.8433821 L91.4969123,22.8433821 C91.539958,22.4342036 91.6051692,22.0642393 91.6925457,21.7334893 L92.9058588,17.0856321 L94.3282973,17.0856321 L92.2405765,24.1226679 Z" id="Fill-25" fill="#1267B0"></path>
                    <path d="M98.9730667,20.5846071 C98.033769,20.637 97.3768388,20.7327857 97.0029186,20.8719643 C96.4028475,21.0895714 96.1024906,21.4768929 96.1024906,22.0336071 C96.1024906,22.8346071 96.6550187,23.2347857 97.7597536,23.2347857 C98.3081056,23.2347857 98.712222,23.1740357 98.9730667,23.0522143 L98.9730667,20.5846071 Z M100.330294,23.7702857 C99.7125548,24.1010357 98.8689858,24.26625 97.7992658,24.26625 C95.7719375,24.26625 94.7587552,23.5308214 94.7587552,22.0599643 C94.7587552,21.1721786 95.1933892,20.5370357 96.0636209,20.1538929 C96.6983857,19.8752143 97.6685222,19.7013214 98.9730667,19.6315714 L98.9730667,19.1876786 C98.9730667,18.387 98.4773976,17.9865 97.4857382,17.9865 C96.7982905,17.9865 96.150355,18.1301786 95.5416104,18.4172143 L95.1763637,17.4381429 C95.9245252,17.1077143 96.742074,16.9418571 97.62901,16.9418571 C99.429866,16.9418571 100.330294,17.7386786 100.330294,19.3313571 L100.330294,23.7702857 Z" id="Fill-27" fill="#1267B0"></path>
                    <path d="M104.818717,18.1823786 C104.609913,18.1299857 104.37027,18.10395 104.101073,18.10395 C103.64845,18.10395 103.279027,18.1650214 102.991841,18.2868429 L102.991841,24.1227 L101.569724,24.1227 L101.569724,17.4382714 C102.352258,17.1075214 103.261359,16.9419857 104.296707,16.9419857 C104.644285,16.9419857 104.909949,16.9596643 105.092733,16.9943786 L104.818717,18.1823786 Z" id="Fill-29" fill="#1267B0"></path>
                    <g id="Group-33" transform="translate(105.365816, 16.787250)">
                        <mask id="mask-6" fill="white">
                            <use xlink:href="#path-5"></use>
                        </mask>
                        <g id="Clip-32"></g>
                        <path d="M4.88068596,3.02705357 C4.87201255,1.80851786 4.35000203,1.19908929 3.31465439,1.19908929 C2.75827148,1.19908929 2.31881893,1.39966071 1.99693921,1.79983929 C1.65771268,2.20901786 1.48392333,2.77473214 1.47492869,3.49698214 L4.88068596,3.02705357 Z M6.23791332,3.78433929 L1.5664813,4.43716071 C1.71425043,5.70808929 2.43189444,6.34323214 3.71941332,6.34323214 C4.48492167,6.34323214 5.13285719,6.19955357 5.66354112,5.91251786 L6.0808283,6.982875 C5.44606351,7.313625 4.62819348,7.47916071 3.62818194,7.47916071 C2.53179922,7.47916071 1.67955681,7.14841071 1.07049099,6.48691071 C0.470419821,5.84276786 0.170384235,4.95080357 0.170384235,3.810375 C0.170384235,2.72266071 0.45307301,1.84355357 1.01845056,1.17305357 C1.59250152,0.494196429 2.36668328,0.154767857 3.34099584,0.154767857 C4.24559992,0.154767857 4.95874661,0.433446429 5.48075713,0.990482143 C5.99377301,1.54751786 6.25076281,2.30030357 6.25076281,3.24883929 C6.25076281,3.484125 6.24594425,3.66251786 6.23791332,3.78433929 L6.23791332,3.78433929 Z" id="Fill-31" fill="#1267B0" mask="url(#mask-6)"></path>
                    </g>
                </g>
            </g>
        </g>
    </g>
</svg>